<svg width="460" height="321" viewBox="0 0 460 321" fill="none" xmlns="http://www.w3.org/2000/svg">
<mask id="mask0_605_168" style="mask-type:alpha" maskUnits="userSpaceOnUse" x="0" y="0" width="460" height="321">
<rect width="460" height="321" fill="#D9D9D9"/>
</mask>
<g mask="url(#mask0_605_168)">
<path d="M311.005 136.62L309.854 135.861C306.696 133.78 303.512 131.751 300.315 129.778L300.314 129.778C294.587 126.246 284.096 122.213 272.557 119.139C261.008 116.062 248.276 113.91 238.044 114.212C233.852 114.332 230.036 114.869 226.928 116.009M311.005 136.62L227.272 116.948M311.005 136.62L309.927 137.479C306.934 139.862 302.884 141.476 298.236 142.508C293.58 143.542 288.259 144.005 282.668 144.042M311.005 136.62L221.806 126.951M226.928 116.009L227.272 116.948M226.928 116.009C226.928 116.008 226.928 116.008 226.929 116.008L227.272 116.948M226.928 116.009C224.239 116.991 221.979 118.451 220.719 120.726M227.272 116.948C224.695 117.889 222.689 119.232 221.594 121.21M220.719 120.726C220.719 120.726 220.719 120.725 220.719 120.725L221.594 121.21M220.719 120.726C220.123 121.801 219.987 122.909 220.232 123.998C220.47 125.058 221.055 126.045 221.806 126.951M220.719 120.726L221.594 121.21M221.594 121.21L221.806 126.951M221.806 126.951C223.864 129.44 227.367 131.698 231.645 133.74L231.646 133.741C244.469 139.851 265.068 144.162 282.668 144.042M221.806 126.951L222.576 126.313L221.805 126.95C221.806 126.95 221.806 126.951 221.806 126.951ZM282.668 144.042L282.661 143.042L282.667 144.042C282.667 144.042 282.667 144.042 282.668 144.042ZM316.694 137.201L315.579 136.434L316.64 135.593C318.147 134.398 319.562 133.232 320.826 132.023C323.637 129.331 325.722 126.426 326.647 122.694C328.257 116.194 326.703 109.681 323.322 103.534C318.518 94.8197 310.083 87.0017 303.159 81.4434C265.684 51.3933 218.665 47.0069 174.6 51.7625C142.522 55.2267 112.194 63.5062 88.4945 69.9764C79.9718 72.3031 72.3061 74.3959 65.7243 75.9466C64.9934 76.1204 64.5424 76.855 64.7146 77.5775L64.7146 77.5775L64.7157 77.5821C64.8845 78.3057 65.6166 78.7624 66.35 78.5918C72.8101 77.0693 80.3832 74.9986 88.8318 72.6886C112.419 66.2393 142.829 57.9244 174.893 54.4639C217.987 49.8097 264.409 53.8515 301.456 83.5606C308.008 88.8141 316.239 96.305 320.941 104.844C323.887 110.189 325.496 116.05 324.01 122.047C323.187 125.376 321.258 127.852 318.947 130.063L318.256 129.34L318.947 130.063C317.378 131.564 315.606 132.968 313.792 134.396L313.222 134.845L312.618 134.442C309.022 132.042 305.395 129.72 301.741 127.469L301.741 127.469C296.016 123.94 285.305 119.785 273.349 116.588C261.404 113.394 248.348 111.191 237.958 111.497L237.935 110.698L237.958 111.497C232.339 111.663 227.557 112.571 224.055 114.281C221.446 115.556 219.528 117.274 218.343 119.409C216.953 121.927 217.065 124.429 218.514 126.962L218.515 126.963C220.285 130.065 224.454 133.318 230.48 136.189L230.481 136.189C243.503 142.4 264.629 146.88 282.685 146.756L282.685 146.756C295.161 146.674 305.927 144.313 311.904 139.371L311.904 139.37C312.188 139.136 312.477 138.897 312.769 138.661L313.346 138.196L313.959 138.614C348.696 162.268 379.475 192.852 389.994 230.858C393.618 243.947 393.427 257.424 393.233 271.015C393.223 271.726 393.213 272.437 393.203 273.148L393.203 273.149C393.192 273.889 393.794 274.509 394.542 274.519L394.546 274.519C395.29 274.531 395.91 273.93 395.92 273.18C395.927 272.686 395.933 272.193 395.94 271.7C396.136 257.387 396.326 243.548 392.613 230.127C382.117 192.221 351.692 161.29 316.694 137.201Z" fill="white" stroke="#171612" stroke-width="2"/>
</g>
<path d="M390.874 280.831L391.953 280.235C393.04 279.634 394.224 278.554 395.341 277.48C397.383 275.522 399.431 273.16 400.811 271.569C401.187 271.135 401.513 270.759 401.777 270.463C402.279 269.904 403.14 269.857 403.697 270.355C404.255 270.853 404.304 271.712 403.802 272.275C403.802 272.275 403.802 272.276 403.802 272.276L404.548 272.941C404.264 273.259 403.917 273.657 403.521 274.112C401.764 276.128 399.041 279.251 396.527 281.428L390.874 280.831ZM390.874 280.831L390.513 279.653C390.273 278.869 389.864 277.453 389.605 276.269C388.763 272.426 387.523 267.938 384.208 264.876L384.208 264.876L384.205 264.874C383.662 264.368 382.801 264.4 382.293 264.949L382.292 264.951C381.783 265.498 381.816 266.356 382.369 266.867L382.37 266.868C384.469 268.813 385.497 271.381 386.167 273.676L390.874 280.831Z" fill="white" stroke="#171612" stroke-width="2"/>
</svg>
