<svg width="114" height="16" viewBox="0 0 114 16" fill="none" xmlns="http://www.w3.org/2000/svg">
<path d="M113.988 1.7998V14.9998H111.228V1.7998H113.988Z" fill="#171612"/>
<path d="M108.049 1.7998V9.7998C108.049 11.5998 107.569 12.9531 106.609 13.8598C105.649 14.7531 104.249 15.1998 102.409 15.1998C100.569 15.1998 99.1686 14.7531 98.2086 13.8598C97.2486 12.9531 96.7686 11.5998 96.7686 9.7998V1.7998H99.5286V9.67981C99.5286 10.7865 99.7619 11.6065 100.229 12.1398C100.709 12.6731 101.435 12.9398 102.409 12.9398C103.382 12.9398 104.102 12.6731 104.569 12.1398C105.035 11.6065 105.269 10.7865 105.269 9.67981V1.7998H108.049Z" fill="#171612"/>
<path d="M71.7295 14.9998V4.99981H74.1895L74.2895 6.7998C74.6228 6.13314 75.0762 5.63314 75.6495 5.29981C76.2362 4.96647 76.8828 4.7998 77.5895 4.7998C78.3095 4.7998 78.9562 4.96647 79.5295 5.29981C80.1162 5.63314 80.5562 6.12647 80.8495 6.77981C81.0628 6.3398 81.3495 5.97314 81.7095 5.6798C82.0695 5.38647 82.4695 5.16647 82.9095 5.0198C83.3495 4.87314 83.7962 4.7998 84.2495 4.7998C84.9028 4.7998 85.4962 4.93314 86.0295 5.19981C86.5762 5.46647 87.0095 5.86647 87.3295 6.39981C87.6495 6.93314 87.8095 7.61314 87.8095 8.43981V14.9998H85.0695V8.9798C85.0695 8.24647 84.9095 7.72647 84.5895 7.41981C84.2695 7.11314 83.8562 6.95981 83.3495 6.95981C82.9495 6.95981 82.5762 7.0598 82.2295 7.2598C81.8962 7.4598 81.6295 7.75981 81.4295 8.15981C81.2428 8.54647 81.1495 9.03314 81.1495 9.61981V14.9998H78.4095V8.9798C78.4095 8.24647 78.2428 7.72647 77.9095 7.41981C77.5895 7.11314 77.1762 6.95981 76.6695 6.95981C76.3228 6.95981 75.9762 7.05314 75.6295 7.23981C75.2962 7.42647 75.0162 7.71981 74.7895 8.11981C74.5762 8.51981 74.4695 9.04647 74.4695 9.69981V14.9998H71.7295Z" fill="#171612"/>
<path d="M65.9451 8.61981C65.9451 8.04647 65.7784 7.59981 65.4451 7.27981C65.1251 6.9598 64.6984 6.7998 64.1651 6.7998C63.6717 6.7998 63.2384 6.92647 62.8651 7.1798C62.4917 7.43314 62.2184 7.85314 62.0451 8.43981L59.7051 7.7198C59.9317 6.8398 60.4251 6.13314 61.1851 5.5998C61.9584 5.06647 62.9917 4.7998 64.2851 4.7998C65.1651 4.7998 65.9317 4.9398 66.5851 5.2198C67.2384 5.48647 67.7451 5.89314 68.1051 6.43981C68.4784 6.98647 68.6651 7.67314 68.6651 8.49981V12.5598C68.6651 13.0665 68.9051 13.3198 69.3851 13.3198C69.6117 13.3198 69.8251 13.2865 70.0251 13.2198L69.8651 14.9198C69.5184 15.0931 69.0851 15.1798 68.5651 15.1798C68.0984 15.1798 67.6784 15.0998 67.3051 14.9398C66.9317 14.7798 66.6384 14.5398 66.4251 14.2198C66.2117 13.8865 66.1051 13.4731 66.1051 12.9798V12.8998L66.5851 12.8198C66.5051 13.3265 66.2851 13.7598 65.9251 14.1198C65.5651 14.4665 65.1251 14.7331 64.6051 14.9198C64.0984 15.1065 63.5717 15.1998 63.0251 15.1998C62.3451 15.1998 61.7584 15.0998 61.2651 14.8998C60.7717 14.6865 60.3917 14.3798 60.1251 13.9798C59.8584 13.5798 59.7251 13.0865 59.7251 12.4998C59.7251 11.7531 59.9651 11.1465 60.4451 10.6798C60.9251 10.1998 61.6117 9.87314 62.5051 9.69981L66.2651 8.93981L66.2451 10.6398L63.8451 11.1198C63.3917 11.2131 63.0451 11.3398 62.8051 11.4998C62.5784 11.6465 62.4651 11.8931 62.4651 12.2398C62.4651 12.5731 62.5851 12.8265 62.8251 12.9998C63.0784 13.1731 63.3784 13.2598 63.7251 13.2598C64.0051 13.2598 64.2784 13.2265 64.5451 13.1598C64.8117 13.0931 65.0517 12.9865 65.2651 12.8398C65.4784 12.6931 65.6451 12.4931 65.7651 12.2398C65.8851 11.9865 65.9451 11.6798 65.9451 11.3198V8.61981Z" fill="#171612"/>
<path d="M47.8623 15.0001V0.620117H50.6023V6.70012C50.9223 6.06012 51.3623 5.58678 51.9223 5.28012C52.4823 4.96012 53.1156 4.80012 53.8223 4.80012C54.5156 4.80012 55.129 4.93345 55.6623 5.20012C56.209 5.46678 56.6356 5.87345 56.9423 6.42012C57.2623 6.95345 57.4223 7.62678 57.4223 8.44012V15.0001H54.6823V9.24012C54.6823 8.37345 54.5156 7.78012 54.1823 7.46012C53.849 7.12678 53.4223 6.96012 52.9023 6.96012C52.5156 6.96012 52.1423 7.05345 51.7823 7.24012C51.4356 7.41345 51.149 7.70678 50.9223 8.12012C50.709 8.52012 50.6023 9.05345 50.6023 9.72012V15.0001H47.8623Z" fill="#171612"/>
<path d="M42.6523 1.93994V11.7399C42.6523 12.2199 42.7723 12.5733 43.0123 12.7999C43.2656 13.0133 43.6056 13.1199 44.0323 13.1199C44.3656 13.1199 44.6589 13.0733 44.9123 12.9799C45.1656 12.8733 45.3923 12.7333 45.5923 12.5599L46.0323 14.3799C45.7123 14.6333 45.3123 14.8333 44.8323 14.9799C44.3523 15.1266 43.8456 15.1999 43.3123 15.1999C42.6456 15.1999 42.0523 15.0999 41.5323 14.8999C41.0256 14.6999 40.6256 14.3799 40.3323 13.9399C40.0523 13.4999 39.9123 12.9133 39.9123 12.1799V2.69994L42.6523 1.93994ZM45.8523 4.99994V7.03994H38.0723V4.99994H45.8523Z" fill="#171612"/>
<path d="M30.2285 15.2C29.5618 15.2 28.9618 15.08 28.4285 14.84C27.8951 14.6 27.4685 14.22 27.1485 13.7C26.8418 13.1667 26.6885 12.48 26.6885 11.64V5H29.4285V10.98C29.4285 11.7533 29.5885 12.2933 29.9085 12.6C30.2285 12.8933 30.6885 13.04 31.2885 13.04C31.5685 13.04 31.8418 12.9933 32.1085 12.9C32.3751 12.7933 32.6085 12.6333 32.8085 12.42C33.0218 12.2067 33.1885 11.9333 33.3085 11.6C33.4285 11.2533 33.4885 10.8467 33.4885 10.38V5H36.2285V15H33.7885L33.6885 13.26C33.3551 13.9267 32.8951 14.42 32.3085 14.74C31.7351 15.0467 31.0418 15.2 30.2285 15.2Z" fill="#171612"/>
<path d="M20.9646 8.61981C20.9646 8.04647 20.7979 7.59981 20.4646 7.27981C20.1446 6.9598 19.7179 6.7998 19.1846 6.7998C18.6913 6.7998 18.2579 6.92647 17.8846 7.1798C17.5113 7.43314 17.2379 7.85314 17.0646 8.43981L14.7246 7.7198C14.9513 6.8398 15.4446 6.13314 16.2046 5.5998C16.9779 5.06647 18.0113 4.7998 19.3046 4.7998C20.1846 4.7998 20.9513 4.9398 21.6046 5.2198C22.2579 5.48647 22.7646 5.89314 23.1246 6.43981C23.4979 6.98647 23.6846 7.67314 23.6846 8.49981V12.5598C23.6846 13.0665 23.9246 13.3198 24.4046 13.3198C24.6313 13.3198 24.8446 13.2865 25.0446 13.2198L24.8846 14.9198C24.5379 15.0931 24.1046 15.1798 23.5846 15.1798C23.1179 15.1798 22.6979 15.0998 22.3246 14.9398C21.9513 14.7798 21.6579 14.5398 21.4446 14.2198C21.2313 13.8865 21.1246 13.4731 21.1246 12.9798V12.8998L21.6046 12.8198C21.5246 13.3265 21.3046 13.7598 20.9446 14.1198C20.5846 14.4665 20.1446 14.7331 19.6246 14.9198C19.1179 15.1065 18.5913 15.1998 18.0446 15.1998C17.3646 15.1998 16.7779 15.0998 16.2846 14.8998C15.7913 14.6865 15.4113 14.3798 15.1446 13.9798C14.8779 13.5798 14.7446 13.0865 14.7446 12.4998C14.7446 11.7531 14.9846 11.1465 15.4646 10.6798C15.9446 10.1998 16.6313 9.87314 17.5246 9.69981L21.2846 8.93981L21.2646 10.6398L18.8646 11.1198C18.4113 11.2131 18.0646 11.3398 17.8246 11.4998C17.5979 11.6465 17.4846 11.8931 17.4846 12.2398C17.4846 12.5731 17.6046 12.8265 17.8446 12.9998C18.0979 13.1731 18.3979 13.2598 18.7446 13.2598C19.0246 13.2598 19.2979 13.2265 19.5646 13.1598C19.8313 13.0931 20.0713 12.9865 20.2846 12.8398C20.4979 12.6931 20.6646 12.4931 20.7846 12.2398C20.9046 11.9865 20.9646 11.6798 20.9646 11.3198V8.61981Z" fill="#171612"/>
<path d="M6.51066 15.2001C5.29733 15.2001 4.23066 14.9334 3.31066 14.4001C2.404 13.8668 1.69733 13.0934 1.19066 12.0801C0.683997 11.0668 0.430664 9.84676 0.430664 8.4201C0.430664 7.00676 0.697331 5.79343 1.23066 4.7801C1.764 3.75343 2.51733 2.96676 3.49066 2.4201C4.47733 1.87343 5.61733 1.6001 6.91066 1.6001C8.33733 1.6001 9.49066 1.86676 10.3707 2.4001C11.2507 2.9201 11.9507 3.73343 12.4707 4.8401L9.91066 5.9401C9.69733 5.23343 9.33066 4.71343 8.81066 4.3801C8.304 4.03343 7.67733 3.8601 6.93066 3.8601C6.184 3.8601 5.53733 4.0401 4.99066 4.4001C4.444 4.74676 4.024 5.2601 3.73066 5.9401C3.43733 6.60676 3.29066 7.42676 3.29066 8.4001C3.29066 9.4001 3.43066 10.2468 3.71066 10.9401C3.99066 11.6201 4.404 12.1334 4.95066 12.4801C5.51066 12.8134 6.19733 12.9801 7.01066 12.9801C7.45066 12.9801 7.85733 12.9268 8.23066 12.8201C8.61733 12.7134 8.95066 12.5534 9.23066 12.3401C9.51066 12.1268 9.73066 11.8534 9.89066 11.5201C10.0507 11.1868 10.1307 10.8001 10.1307 10.3601V10.0601H6.67066V8.0401H12.5107V15.0001H10.5707L10.3707 12.1201L10.8507 12.4601C10.5573 13.3401 10.0373 14.0201 9.29066 14.5001C8.55733 14.9668 7.63066 15.2001 6.51066 15.2001Z" fill="#171612"/>
</svg>
