<svg width="65" height="64" viewBox="0 0 65 64" fill="none" xmlns="http://www.w3.org/2000/svg">
<g id="Quote Icon">
<path id="&#226;&#128;&#156;" d="M50.6813 35.0756C53.1441 35.0756 54.3755 36.307 54.3755 38.7698V48.7853C54.3755 51.2481 53.1441 52.4795 50.6813 52.4795H41.1583C38.6955 52.4795 37.4641 51.2481 37.4641 48.7853V38.7698C37.4641 33.0232 38.0661 28.0155 39.2702 23.7466C40.529 19.423 42.9644 15.6466 46.5766 12.4176C47.7806 11.3777 48.7931 11.2409 49.614 12.0071L53.3083 15.4551C54.1292 16.2213 53.9377 17.1517 52.7336 18.2463C50.8728 19.8882 49.3404 22.2689 48.1363 25.3885C46.987 28.4533 46.4124 31.6824 46.4124 35.0756H50.6813ZM23.5902 35.0756C26.053 35.0756 27.2844 36.307 27.2844 38.7698V48.7853C27.2844 51.2481 26.053 52.4795 23.5902 52.4795H14.0673C11.6045 52.4795 10.373 51.2481 10.373 48.7853V38.7698C10.373 33.0232 10.9751 28.0155 12.1791 23.7466C13.4379 19.423 15.8734 15.6466 19.4855 12.4176C20.6895 11.3777 21.702 11.2409 22.523 12.0071L26.2172 15.4551C27.0382 16.2213 26.8466 17.1517 25.6426 18.2463C23.7818 19.8882 22.2493 22.2689 21.0453 25.3885C19.896 28.4533 19.3213 31.6824 19.3213 35.0756H23.5902Z" fill="#171612"/>
</g>
</svg>
